<?xml version="1.0" encoding="UTF-8" standalone="no"?>
<svg xmlns="http://www.w3.org/2000/svg" viewBox="0 0 300 300">
  <defs>
    <style>.cls-1{fill:#ecf1f2;}.cls-2,.cls-3{fill:#fff;}.cls-2,.cls-5{stroke:#0b485b;}.cls-2,.cls-3,.cls-4,.cls-5{stroke-linecap:round;stroke-linejoin:round;stroke-width:3px;}.cls-3,.cls-4{stroke:#0e485b;}.cls-4{fill:none;}.cls-5{fill:#d43900;}</style>
  </defs>
  <g data-name="Layer 2" id="Layer_2">
    <circle class="cls-1" cx="150" cy="150" r="150"/>
  </g>
  <g data-name="Layer 1" id="Layer_1">
    <line class="cls-2" x1="136.7" x2="134.7" y1="87.7" y2="77.1"/>
    <line class="cls-2" x1="190.4" x2="196.8" y1="99.3" y2="90.1"/>
    <line class="cls-2" x1="165.2" x2="163.2" y1="77" y2="87.7"/>
    <line class="cls-2" x1="103.2" x2="109.4" y1="90.2" y2="99.2"/>
    <line class="cls-3" x1="79.2" x2="86" y1="188.9" y2="189.6"/>
    <path class="cls-3" d="M103.6,119.7l-10.3,3.6H85"/>
    <path class="cls-4" d="M143.5,110.6l-5.8-1.6h-.1l-2.3-.3-2.1.4h-.1l-19.5,7"/>
    <path class="cls-2" d="M214.9,123.3s-10.2.8-10.5.7l-2.4-.6-35.8-13.2a21.8,21.8,0,0,0-5.4-1.4,36.3,36.3,0,0,0-4.1.6l-23.9,7.5-1.1.6c-.2.1-22.4,29.1-22.4,29.1a7.9,7.9,0,0,0-.8,2.3,3.4,3.4,0,0,0,1.3,3.1,13.1,13.1,0,0,0,5.1,1.5c9.4,1,16.7-2.6,24.7-13.7a8.2,8.2,0,0,1,2-2.2,11.5,11.5,0,0,1,3.2-1.2l13.5-3.2c.1,0,50.5,51.6,50.5,51.6l11.6-1"/>
    <path class="cls-4" d="M160.8,216.1l-.8.2a18.5,18.5,0,0,1-14.9-3.7H145"/>
    <path class="cls-4" d="M178.8,212.7l-1,.3a18.4,18.4,0,0,1-16.4-2.4l-8.6-6.1"/>
    <path class="cls-4" d="M197.7,204.5l-1.3.6a18.4,18.4,0,0,1-19.6-2.6l-18.7-15.6"/>
    <path class="cls-4" d="M210.7,192.1h0a18.6,18.6,0,0,1-21.4-2.5l-19.7-17.7"/>
    <path class="cls-5" d="M242.7,118.4a1.5,1.5,0,0,0-1.6-1.3l-24.9,2.2a1.5,1.5,0,0,0-1.4,1.6l6.7,75.2a1.5,1.5,0,0,0,1.6,1.4l24.9-2.2a1.6,1.6,0,0,0,1.4-1.6Z"/>
    <path class="cls-5" d="M83.8,119.3l-24.9-2.2a1.5,1.5,0,0,0-1.6,1.3l-6.7,75.3a1.6,1.6,0,0,0,1.4,1.6l24.9,2.2a1.5,1.5,0,0,0,1.6-1.4l6.7-75.2A1.5,1.5,0,0,0,83.8,119.3Z"/>
    <path class="cls-2" d="M117.3,201.5l1.5-2.2,2.8-4.3c1.5-2.7,1.8-5.1,1.1-6.9s-1.9-2.7-4-3.5-6.4-.2-10.2,3.5a40.8,40.8,0,0,0-4.9,5.6,42,42,0,0,0-3.3,4.8c-1.9,3.9-1.3,6.3,2.5,9.5s4.3,3.1,5.9,2.9,2.9-1.2,4.7-3.5l2.3-3.5A25,25,0,0,0,117.3,201.5Z"/>
    <path class="cls-2" d="M133.1,207.8c.8-1.6,1.6-3.2,2.2-4.7,3.2-7.7,3-11.4-.7-13.7a8.2,8.2,0,0,0-3.9-1.1c-2.5,0-4.8,1.4-6.8,4.2s-3.3,4.6-5.3,7.7l-1.4,2.2c-.6.8-1.1,1.6-1.6,2.4a27.5,27.5,0,0,0-3.1,5c-1,2.5-.5,4.6,5.4,8.2,2.5,1.6,4.3,2.3,5.8,2.3s4.6-2.5,7.9-9.4Z"/>
    <path class="cls-2" d="M142.2,203.7c-4-2.2-7.1.9-8.1,2.6l-2.1,3.9c-.9,1.6-1.3,2.8-2,4.2s-1.2,4-.7,5.1,1.7,1.9,3.9,2.7,4.6,1,6.2.2,3-2.3,3.8-4.7C145.1,212.6,146.4,206,142.2,203.7Z"/>
    <path class="cls-2" d="M106.4,189.6c1-2.5.9-6.7-1.3-8.2-4-2.6-7.5-1.3-13.4,5-3.1,3.3-2.4,6.3,2.3,10.8,2.9,2.7,4.2,1.7,7-.8a33.8,33.8,0,0,0,3.1-3.6A28.1,28.1,0,0,0,106.4,189.6Z"/>
    <path class="cls-2" d="M66.1,188.3a6.1,6.1,0,0,1-6.1-6.2,6.1,6.1,0,0,1,6.1-6.1,6.1,6.1,0,0,1,6.2,6.1A6.2,6.2,0,0,1,66.1,188.3Z"/>
    <path class="cls-2" d="M234.7,190.3a6.1,6.1,0,0,1-6.1-6.2,6.1,6.1,0,0,1,6.1-6.1,6.1,6.1,0,0,1,6.2,6.1A6.2,6.2,0,0,1,234.7,190.3Z"/>
  </g>
</svg>
