<?xml version="1.0" encoding="UTF-8" standalone="no"?>
<svg xmlns="http://www.w3.org/2000/svg" viewBox="0 0 300 300">
  <defs>
    <style>.cls-1{fill:#ecf1f2;}.cls-2,.cls-6{fill:#fff;}.cls-3,.cls-5{fill:none;}.cls-3,.cls-4{stroke:#0b485b;}.cls-3,.cls-4,.cls-5,.cls-6{stroke-linecap:round;stroke-linejoin:round;stroke-width:3px;}.cls-4{fill:#d43900;}.cls-5,.cls-6{stroke:#0e485b;}</style>
  </defs>
  <g data-name="Layer 2" id="Layer_2">
    <circle class="cls-1" cx="150" cy="150" r="150"/>
  </g>
  <g data-name="Layer 1" id="Layer_1">
    <path class="cls-2" d="M223.5,215l-47.7-47.2a49.2,49.2,0,1,0-7.5,8l47.5,47C222.6,223.4,224.7,222.1,223.5,215ZM110.1,167.7a39.3,39.3,0,1,1,55.5-3A39.4,39.4,0,0,1,110.1,167.7Z"/>
    <path class="cls-3" d="M93.9,113.7a49.1,49.1,0,0,0,74.4,62.1l47.5,47c6.8.6,8.9-.7,7.7-7.8l-47.7-47.2a49.2,49.2,0,0,0-76-62.2m66.8,58-1,1.1a39.3,39.3,0,1,1,5.3-7.5"/>
    <path class="cls-4" d="M228,225.6l-1.4,1.5a8.9,8.9,0,0,1-12.5.1l-38.9-38.3a3.1,3.1,0,0,1-.1-4.3l9.7-9.7a2.9,2.9,0,0,1,4.2,0l38.9,38.3A8.7,8.7,0,0,1,228,225.6Z"/>
    <path class="cls-5" d="M137.1,107.7a27.5,27.5,0,0,1,27.5,25.6"/>
    <path class="cls-6" d="M113.6,116.8a27.8,27.8,0,0,1,8.3-6.2"/>
    <line class="cls-3" x1="184.8" x2="184.8" y1="87.3" y2="94.3"/>
    <line class="cls-3" x1="184.8" x2="184.8" y1="70.3" y2="77.3"/>
    <line class="cls-3" x1="179.8" x2="172.7" y1="82.3" y2="82.3"/>
    <line class="cls-3" x1="196.8" x2="189.8" y1="82.3" y2="82.3"/>
    <line class="cls-3" x1="203.3" x2="203.3" y1="96.3" y2="105.4"/>
    <line class="cls-3" x1="207.8" x2="198.8" y1="100.9" y2="100.9"/>
    <line class="cls-3" x1="92.5" x2="92.5" y1="191.6" y2="184.6"/>
    <line class="cls-3" x1="92.5" x2="92.5" y1="208.7" y2="201.6"/>
    <line class="cls-3" x1="97.5" x2="104.5" y1="196.6" y2="196.6"/>
    <line class="cls-3" x1="80.5" x2="87.5" y1="196.6" y2="196.6"/>
    <line class="cls-3" x1="74" x2="74" y1="182.6" y2="173.6"/>
    <line class="cls-3" x1="69.4" x2="78.5" y1="178.1" y2="178.1"/>
  </g>
</svg>
