<?xml version="1.0" encoding="UTF-8" standalone="no"?>
<svg xmlns="http://www.w3.org/2000/svg" xmlns:xlink="http://www.w3.org/1999/xlink" viewBox="0 0 300 300">
  <defs>
    <style>.cls-1,.cls-4,.cls-9{fill:none;}.cls-1{clip-rule:evenodd;}.cls-2,.cls-6{fill:#ecf1f2;}.cls-3,.cls-7{fill:#fff;}.cls-4,.cls-6,.cls-7,.cls-8,.cls-9{stroke:#0e485b;stroke-width:3px;}.cls-4,.cls-6,.cls-7,.cls-9{stroke-linecap:round;stroke-linejoin:round;}.cls-4{fill-rule:evenodd;}.cls-5{clip-path:url(#clip-path);}.cls-8{fill:#d43900;stroke-miterlimit:10;}</style>
    <clipPath id="clip-path">
      <path class="cls-1" d="M151.1,59l-66,4.7L83.3,186.3c8.7,8.5,18.3,16.1,26.9,22.9C135.1,228.9,142,233.1,150,241c8-7.9,14.6-12.6,39.8-31.8s55.7-44.4,55.7-79.6c0-22.9-12.5-41.1-29.2-50.2Z"/>
    </clipPath>
  </defs>
  <g data-name="Layer 2" id="Layer_2">
    <circle class="cls-2" cx="150" cy="150" r="150"/>
  </g>
  <g data-name="Layer 1" id="Layer_1">
    <path class="cls-3" d="M245.5,127.5c0-30-23.3-54.2-52.1-54.2-18.3,0-34.4,9.8-43.7,24.7-9.3-14.9-25.4-24.7-43.7-24.7-28.8,0-52.1,24.2-52.1,54.2a56.6,56.6,0,0,0,3.3,19h-.3l1,1.7A54.5,54.5,0,0,0,65,161l8.3,14.7,12.5,13L150,241l60.4-48.6s29.4-23.8,32.6-45.8a4,4,0,0,0-.2-1.9A57.3,57.3,0,0,0,245.5,127.5Z"/>
    <path class="cls-4" d="M201.3,74.1c-17.9-3.4-37.6,3.1-51.3,23.7C118.2,50.1,54.5,78,54.5,130c0,18.4,8.6,34,20.3,47.4"/>
    <g class="cls-5">
      <polygon class="cls-2" points="95.1 196.9 150 241 207.2 195.3 102.2 193.6 95.1 196.9"/>
      <path class="cls-6" d="M207.2,195.3c0-30.4-23-33.6-23.9-35-12.5-20.2,19.6-74.6-33.3-74.6-47.4,0-26.8,54.1-33.3,74.6-.5,1.6-21.6,4.6-21.6,36.6"/>
      <path class="cls-7" d="M135.6,145.4s1.1,10.4-5.1,18.3c0,0,5.6,9.1,19.5,9.1s19.5-9.1,19.5-9.1c-6.2-7.9-5.1-18.3-5.1-18.3"/>
      <path class="cls-7" d="M176.8,130.3c-.5,2.4-1.4,4.5-2.4,5.3a1.8,1.8,0,0,1-1.3.5l-.6-.3c-2.2,6.9-6.5,13.9-11.9,18.1a17.5,17.5,0,0,1-10.5,3.9,17,17,0,0,1-10.5-4c-5.4-4.2-9.7-11.1-11.9-18l-.6.3a1.6,1.6,0,0,1-1.4-.6,11,11,0,0,1-2.3-5.2c-.5-3-.1-5.7,1-6.5l.5-.2a1.9,1.9,0,0,1,1.1.4h0c0-13,12.9-15,12.9-15,13.7,21.5,33.7,17.4,33.7,17.4l2.8-2.7h.2C176.8,124.3,177.3,127.1,176.8,130.3Z"/>
      <path class="cls-8" d="M178.3,186.3V186a.6.6,0,0,1-.1-.4l-.2-.3a.5.5,0,0,0-.2-.4l-.2-.3-.2-.3-.3-.2-.3-.3-.3-.2-.3-.2h-.4a.1.1,0,0,0-.1-.1H130.9l-1.5-8.6h0c0-.2-.1-.3-.1-.5v-.3c-.1-.1-.1-.3-.2-.4l-.2-.2-.3-.5h-.1l-.5-.4h-.1l-.5-.3H116.6a3.9,3.9,0,0,0,0,7.8h5.6l6,35.2h.1v.4c.1.1.1.2.2.4s0,.2.1.2.1.3.2.4l.2.3.2.3.2.2.4.3h.2l.4.2.3.2h36.9l.4-.2.2-.2a1,1,0,0,0,.5-.4h.1l.4-.5a.3.3,0,0,1,.1-.2l.2-.4a.4.4,0,0,0,.1-.3c0-.1.1-.1.1-.2l8.5-26.6v-.6c.1-.1.1-.2.1-.4v-.2h0A.9.9,0,0,0,178.3,186.3Z"/>
      <path class="cls-8" d="M136.7,221.5a6.1,6.1,0,0,0-6.1,6.1,2.2,2.2,0,0,0,.1.8,6,6,0,0,0,6,5.3,6,6,0,0,0,6-5.2,2.8,2.8,0,0,0,.1-.9A6.1,6.1,0,0,0,136.7,221.5Z"/>
      <path class="cls-8" d="M161.4,221.5a6.1,6.1,0,0,0-6.1,6.1c0,.3.1.6.1.9a6,6,0,0,0,6,5.2,6.2,6.2,0,0,0,6.1-5.3v-.8A6.1,6.1,0,0,0,161.4,221.5Z"/>
    </g>
    <path class="cls-4" d="M83.3,186.3c8.7,8.5,18.3,16.1,26.9,22.9C135.1,228.9,142,233.1,150,241c8-7.9,14.6-12.6,39.8-31.8s55.7-44.4,55.7-79.6c0-22.9-12.5-41.1-29.2-50.2"/>
    <path class="cls-7" d="M71,118.5A47.1,47.1,0,0,0,69.6,130v2.2"/>
    <path class="cls-9" d="M98,89.8a39.9,39.9,0,0,0-23.2,19"/>
  </g>
</svg>
