<?xml version="1.0" encoding="UTF-8" standalone="no"?>
<svg xmlns="http://www.w3.org/2000/svg" viewBox="0 0 300 300">
  <defs>
    <style>.cls-1{fill:#ecf1f2;}.cls-2,.cls-3{fill:none;}.cls-2,.cls-3,.cls-4,.cls-5{stroke:#0e485b;stroke-linecap:round;stroke-linejoin:round;stroke-width:3px;}.cls-2,.cls-4,.cls-5{fill-rule:evenodd;}.cls-4{fill:#fff;}.cls-5{fill:#d43900;}</style>
  </defs>
  <g data-name="Layer 2" id="Layer_2">
    <circle class="cls-1" cx="150" cy="150" r="150"/>
  </g>
  <g data-name="Layer 1" id="Layer_1">
    <polyline class="cls-2" points="201.7 213.9 161.8 186.6 113.3 211.3 96.5 205.3 63.1 243.4"/>
    <line class="cls-3" x1="226.8" x2="207.9" y1="231.2" y2="218.2"/>
    <path class="cls-4" d="M120.4,119.5l-.9-1.6-15.8-12.7a7.5,7.5,0,0,1-2.5-3.5L98.1,76.9c-1.3-3.7,7.1-6.5,8.8-2.8l4.3,20.6,9.4,7.8,45.9,10.4,20.9-3.1c2.9-.6,2.4,9.2.6,9.5l-19,5.3a8.3,8.3,0,0,1-3.5-.1l-14.4-2.1-1.1.6-1.4,20.7,1.1,1.9,17.4,12.5c2,1.6,2,4.7,1.9,7.4l-1,27.4c-1.2,2.6-12.1,1-11-1.9l-1.6-23L140,162.2l-7,46.7c-.2,1.6-11.1,2.1-11.1.2l.9-58.5-2.4-31.1Zm8.4-34.9c0,2.7,1.2,9,2.7,11.3a11.7,11.7,0,0,0,7.4,4.3,12.7,12.7,0,0,0,3.3-.3,11.6,11.6,0,0,0,6.5-5.5c1.1-2.5,1.1-8.9.6-11.6-.9-5.1-5.7-7.3-10.9-6.8S128.9,79.4,128.8,84.6Z"/>
    <path class="cls-5" d="M184.5,92.8V205h-5.7V58.3c9.7,5,18.8,2.5,27.1.1,11.1-3.2,22.3-1.5,31,1.1V93.9c-7.3-5.4-17.6-5.5-26.5-1S193.1,97,184.5,92.8Z"/>
  </g>
</svg>
